<?xml version="1.0" encoding="utf-8"?>
<!-- Generator: Adobe Illustrator 17.1.0, SVG Export Plug-In . SVG Version: 6.00 Build 0)  -->
<!DOCTYPE svg PUBLIC "-//W3C//DTD SVG 1.1//EN" "http://www.w3.org/Graphics/SVG/1.1/DTD/svg11.dtd">
<svg version="1.1" id="graph" xmlns="http://www.w3.org/2000/svg" xmlns:xlink="http://www.w3.org/1999/xlink" x="0px" y="0px"
	 viewBox="0 0 1010 1010" enable-background="new 0 0 1010 1010" xml:space="preserve">
<g id="graph-graph">
	<path id="graph-label" fill="#FFB933" d="M505,1010c278.875,0,505-226.0859,505-505.0195C1010,226.1255,783.875,0,505,0
		C226.106,0,0,226.1255,0,504.9805C0,783.9141,226.106,1010,505,1010z"/>
	<g id="graph-graph_1_">
		<g>
			<path fill="#454545" d="M249.8965,773.8535c-5.5781,0-10.1006-4.5176-10.1006-10.1006V246.2266
				c0-5.5821,4.5225-10.0996,10.1006-10.0996c5.5771,0,10.0996,4.5175,10.0996,10.0996v517.5263
				C259.9961,769.3359,255.4736,773.8535,249.8965,773.8535L249.8965,773.8535z"/>
		</g>
		<g>
			<path fill="#454545" d="M787.7998,756.001H232.0439c-5.5781,0-10.1005-4.5176-10.1005-10.1006
				c0-5.582,4.5224-10.0996,10.1005-10.0996h555.7559c5.5781,0,10.1006,4.5176,10.1006,10.0996
				C797.9004,751.4834,793.3779,756.001,787.7998,756.001L787.7998,756.001z"/>
		</g>
		<g>
			<path fill="#454545" d="M274.6333,702.0293h-52.4331c-5.5781,0-10.1001-4.5176-10.1001-10.1006s4.522-10.0996,10.1001-10.0996
				h52.4331c5.5776,0,10.1001,4.5166,10.1001,10.0996S280.2109,702.0293,274.6333,702.0293L274.6333,702.0293z"/>
		</g>
		<g>
			<path fill="#454545" d="M274.6333,650.8779h-52.4331c-5.5781,0-10.1001-4.5175-10.1001-10.1006
				c0-5.582,4.522-10.0996,10.1001-10.0996h52.4331c5.5776,0,10.1001,4.5176,10.1001,10.0996
				C284.7334,646.3604,280.2109,650.8779,274.6333,650.8779L274.6333,650.8779z"/>
		</g>
		<g>
			<path fill="#454545" d="M274.6333,599.7266h-52.4331c-5.5781,0-10.1001-4.5176-10.1001-10.0996
				c0-5.5831,4.522-10.0997,10.1001-10.0997h52.4331c5.5776,0,10.1001,4.5166,10.1001,10.0997
				C284.7334,595.209,280.2109,599.7266,274.6333,599.7266L274.6333,599.7266z"/>
		</g>
		<g>
			<path fill="#454545" d="M274.6333,548.5957h-52.4331c-5.5781,0-10.1001-4.5176-10.1001-10.0996
				c0-5.583,4.522-10.1006,10.1001-10.1006h52.4331c5.5776,0,10.1001,4.5176,10.1001,10.1006
				C284.7334,544.0781,280.2109,548.5957,274.6333,548.5957L274.6333,548.5957z"/>
		</g>
		<g>
			<path fill="#454545" d="M274.6333,497.4443h-52.4331c-5.5781,0-10.1001-4.5166-10.1001-10.0996
				c0-5.583,4.522-10.1006,10.1001-10.1006h52.4331c5.5776,0,10.1001,4.5176,10.1001,10.1006
				C284.7334,492.9277,280.2109,497.4443,274.6333,497.4443L274.6333,497.4443z"/>
		</g>
		<g>
			<path fill="#454545" d="M274.6333,446.2939h-52.4331c-5.5781,0-10.1001-4.5175-10.1001-10.1005
				c0-5.5821,4.522-10.0997,10.1001-10.0997h52.4331c5.5776,0,10.1001,4.5176,10.1001,10.0997
				C284.7334,441.7764,280.2109,446.2939,274.6333,446.2939L274.6333,446.2939z"/>
		</g>
		<g>
			<path fill="#454545" d="M274.6333,395.1426h-52.4331c-5.5781,0-10.1001-4.5176-10.1001-10.0996
				c0-5.583,4.522-10.1006,10.1001-10.1006h52.4331c5.5776,0,10.1001,4.5176,10.1001,10.1006
				C284.7334,390.625,280.2109,395.1426,274.6333,395.1426L274.6333,395.1426z"/>
		</g>
		<g>
			<path fill="#454545" d="M274.6333,343.9917h-52.4331c-5.5781,0-10.1001-4.5171-10.1001-10.1001
				c0-5.5825,4.522-10.0996,10.1001-10.0996h52.4331c5.5776,0,10.1001,4.5171,10.1001,10.0996
				C284.7334,339.4746,280.2109,343.9917,274.6333,343.9917L274.6333,343.9917z"/>
		</g>
		<g>
			<path fill="#454545" d="M274.6333,292.8408h-52.4331c-5.5781,0-10.1001-4.5176-10.1001-10.1001
				c0-5.5825,4.522-10.1001,10.1001-10.1001h52.4331c5.5776,0,10.1001,4.5176,10.1001,10.1001
				C284.7334,288.3232,280.2109,292.8408,274.6333,292.8408L274.6333,292.8408z"/>
		</g>
		<g>
			<g>
				<path fill="#3BAFDA" d="M404.2271,598.8789c0,24.6582-19.983,44.6211-44.6119,44.6211
					c-24.6386,0-44.6211-19.9629-44.6211-44.6211c0-24.6191,19.9825-44.6016,44.6211-44.6016
					C384.2441,554.2773,404.2271,574.2598,404.2271,598.8789z"/>
				<path fill="#454545" d="M359.6152,653.5996c-30.1718,0-54.7216-24.5391-54.7216-54.7207
					c0-30.1621,24.5498-54.7021,54.7216-54.7021c30.167,0,54.7119,24.54,54.7119,54.7021
					C414.3271,629.0605,389.7822,653.5996,359.6152,653.5996L359.6152,653.5996z M359.6152,564.377
					c-19.0361,0-34.5214,15.4853-34.5214,34.5019c0,19.0361,15.4853,34.5215,34.5214,34.5215
					c19.0313,0,34.5118-15.4854,34.5118-34.5215C394.127,579.8623,378.6465,564.377,359.6152,564.377L359.6152,564.377z"/>
			</g>
			<g>
				<path fill="#FC6E51" d="M511.1846,491.9209c0,24.6387-19.9834,44.6221-44.6216,44.6221
					c-24.6284,0-44.6021-19.9834-44.6021-44.6221c0-24.6377,19.9737-44.6211,44.6021-44.6211
					C491.2012,447.2998,511.1846,467.2832,511.1846,491.9209z"/>
				<path fill="#454545" d="M466.563,546.6426c-30.1621,0-54.7017-24.5401-54.7017-54.7217
					c0-30.1611,24.5396-54.7217,54.7017-54.7217c30.1714,0,54.7212,24.5606,54.7212,54.7217
					C521.2842,522.1025,496.7344,546.6426,466.563,546.6426L466.563,546.6426z M466.563,457.3994
					c-19.0264,0-34.502,15.4854-34.502,34.5215s15.4756,34.5215,34.502,34.5215c19.0361,0,34.5215-15.4854,34.5215-34.5215
					S485.5991,457.3994,466.563,457.3994L466.563,457.3994z"/>
			</g>
			<g>
				<path fill="#ACAF48" d="M787.7998,465.1523c0,24.6582-19.9727,44.6211-44.6309,44.6211
					c-24.6191,0-44.6025-19.9629-44.6025-44.6211c0-24.6386,19.9834-44.6015,44.6025-44.6015
					C767.8271,420.5508,787.7998,440.5137,787.7998,465.1523z"/>
				<path fill="#454545" d="M743.1689,519.874c-30.1621,0-54.7021-24.54-54.7021-54.7217c0-30.1621,24.54-54.7021,54.7021-54.7021
					c30.1768,0,54.7315,24.54,54.7315,54.7021C797.9004,495.334,773.3457,519.874,743.1689,519.874L743.1689,519.874z
					 M743.1689,430.6504c-19.0263,0-34.5019,15.4853-34.5019,34.5019c0,19.0362,15.4756,34.5215,34.5019,34.5215
					c19.0411,0,34.5313-15.4853,34.5313-34.5215C777.7002,446.1357,762.21,430.6504,743.1689,430.6504L743.1689,430.6504z"/>
			</g>
			<g>
				<path fill="#FFFFFF" d="M627.2061,607.9336c0,24.6377-20.0031,44.6211-44.6319,44.6211
					c-24.6378,0-44.6212-19.9834-44.6212-44.6211c0-24.6387,19.9834-44.6221,44.6212-44.6221
					C607.2031,563.3115,627.2061,583.2949,627.2061,607.9336z"/>
				<path fill="#454545" d="M582.5742,662.6543c-30.1709,0-54.7207-24.5596-54.7207-54.7207
					c0-30.1816,24.5498-54.7217,54.7207-54.7217c30.1778,0,54.7324,24.5401,54.7324,54.7217
					C637.3066,638.0947,612.752,662.6543,582.5742,662.6543L582.5742,662.6543z M582.5742,573.4121
					c-19.0356,0-34.521,15.4844-34.521,34.5215c0,19.0351,15.4854,34.5215,34.521,34.5215c19.042,0,34.5322-15.4864,34.5322-34.5215
					C617.1064,588.8965,601.6162,573.4121,582.5742,573.4121L582.5742,573.4121z"/>
			</g>
			<g>
				<path fill="#454545" d="M386.2656,573.4121c-2.584,0-5.1679-0.9863-7.1406-2.959c-3.9453-3.9453-3.9453-10.3369,0-14.2822
					l44.7197-44.7207c3.9453-3.9453,10.3369-3.9453,14.2823,0c3.9453,3.9453,3.9453,10.3369,0,14.2822l-44.7198,44.7207
					C391.4346,572.4258,388.8501,573.4121,386.2656,573.4121L386.2656,573.4121z"/>
			</g>
			<g>
				<path fill="#454545" d="M555.9341,582.4463c-2.5845,0-5.1685-0.9863-7.1411-2.959l-53.794-53.7549
					c-3.9453-3.9453-3.9453-10.3369-0.0049-14.2822c3.9454-3.9453,10.3413-3.9453,14.2867,0l53.7944,53.7549
					c3.9453,3.9453,3.9453,10.3369,0.0049,14.2822C561.1074,581.46,558.5186,582.4463,555.9341,582.4463L555.9341,582.4463z"/>
			</g>
			<g>
				<path fill="#454545" d="M618.2793,591.2637c-2.584,0-5.168-0.9865-7.1406-2.959c-3.9453-3.9453-3.9453-10.336,0-14.2813
					l89.2031-89.2431c3.9355-3.9453,10.3379-3.9453,14.2832,0s3.9453,10.3369,0,14.2822l-89.2041,89.2422
					C623.4531,590.2773,620.8643,591.2637,618.2793,591.2637L618.2793,591.2637z"/>
			</g>
		</g>
	</g>
</g>
</svg>
